# xmcd
#
# Track frame offsets: 
#        150
#        20230
#        42243
#        61668
#        75410
#        98708
#        118705
#        138348
#        160530
#        180598
#
# Disc length: 2584 seconds
#
# Revision: 3
# Processed by: cddbd v1.5.2PL0 Copyright (c) Steve Scherf et al.
# Submitted via: ExactAudioCopy v0.95b4
#
DISCID=730a160a
DTITLE=Pedrinho Mattar - Pianomania
DYEAR=1900
DGENRE=Instrumental
TTITLE0=Piano Western "O Dólar Furado - The Good, The Bad And The Ugly
TTITLE0="
TTITLE1=Piano Chorão "Espinha De Bacalhau - André De Sapato Novo"
TTITLE2=Piano Clássico "Sonho De Amor - Fantasia Improviso"
TTITLE3=Piano Porteño "A Media Luz - Mano A Mano"
TTITLE4=Piano Nostálgico "Maria Helena - Saudades De Matão"
TTITLE5=Piano Árabe "The Sensual Chifti-Leila - Fata Morgana"
TTITLE6=Piano Bossa Nova "Samba De Uma Nota Só - O Barquinho"
TTITLE7=Piano Romântico "Somewhere In Time - Aline" 
TTITLE8=Piano Movie "Chariots Of Fire - Zorba, O Grego"
TTITLE9=Piano Alemão "Wir, Wir, Wir Haben Ein Klavier - Liechtensteine
TTITLE9=r Polka" 
EXTD=
EXTT0=
EXTT1=
EXTT2=
EXTT3=
EXTT4=
EXTT5=
EXTT6=
EXTT7=
EXTT8=
EXTT9=
PLAYORDER=
